# xmcd CD database file
#
# Track frame offsets:
#	150
#	14101
#	30696
#	47528
#	60420
#	76443
#	92278
#	109051
#	124668
#	137107
#	152638
#	168359
#	181899
#	196137
#	215563
#
# Disc length: 3183 seconds
#
# Revision: 0
# Processed by: cddbd v1.5.1PL0 Copyright (c) Steve Scherf et al.
# Submitted via: CDex 1.51
#
DISCID=c00c6d0f
DTITLE=McHouston Baker - Mississppi Delta Blues
DYEAR=1973
DGENRE=Blues
TTITLE0=Good Advice
TTITLE1=High Sherriff Blues
TTITLE2=Blues Before sunrise
TTITLE3=Terraplane Blues
TTITLE4=Animal Farm
TTITLE5=Alabama March
TTITLE6=Sun Is Going Down
TTITLE7=Sweet Home Chicago
TTITLE8=My Black Woman
TTITLE9=Can't  Find My Woman
TTITLE10=Trouble Is A Woman
TTITLE11=Lazy Daizy
TTITLE12=Spoonful
TTITLE13=Drucilla
TTITLE14=Whoa! Back Buck
EXTD=YEAR: 1973
EXTT0=
EXTT1=
EXTT2=
EXTT3=
EXTT4=
EXTT5=
EXTT6=
EXTT7=
EXTT8=
EXTT9=
EXTT10=
EXTT11=
EXTT12=
EXTT13=
EXTT14=
PLAYORDER=
